<svg xmlns="http://www.w3.org/2000/svg" width="32" height="32" viewBox="0 0 32 32"><rect width="32" height="32" fill="none"/><rect x="3" y="13" width="20" height="12" fill="none" stroke="#000" stroke-miterlimit="10" stroke-width="2"/><rect x="11" y="17" width="4" height="4" fill="#eb0a1e"/><path d="M6.82,13A2.77,2.77,0,0,1,7,14a3,3,0,0,1-3,3,2.77,2.77,0,0,1-1-.18" fill="none" stroke="#000" stroke-miterlimit="10" stroke-width="2"/><path d="M6.82,25A2.77,2.77,0,0,0,7,24a3,3,0,0,0-3-3,2.77,2.77,0,0,0-1,.18" fill="none" stroke="#000" stroke-miterlimit="10" stroke-width="2"/><path d="M19.18,13A2.77,2.77,0,0,0,19,14a3,3,0,0,0,3,3,2.77,2.77,0,0,0,1-.18" fill="none" stroke="#000" stroke-miterlimit="10" stroke-width="2"/><path d="M19.18,25A2.77,2.77,0,0,1,19,24a3,3,0,0,1,3-3,2.77,2.77,0,0,1,1,.18" fill="none" stroke="#000" stroke-miterlimit="10" stroke-width="2"/><polyline points="7 13 7 7 29 7 29 19 23 19" fill="none" stroke="#000" stroke-miterlimit="10" stroke-width="2"/></svg>